<!-- Generated by IcoMoon.io -->
<svg version="1.1" xmlns="http://www.w3.org/2000/svg" width="32" height="32" viewBox="0 0 32 32">
<title>Photo-Camera</title>
<path d="M8.272 4.8l2.928-3.2h9.6l2.928 3.2h5.072c1.76 0 3.2 1.44 3.2 3.2v19.2c0 1.76-1.44 3.2-3.2 3.2h-25.6c-1.76 0-3.2-1.44-3.2-3.2v-19.2c0-1.76 1.44-3.2 3.2-3.2h5.072zM8 17.6c0 4.416 3.584 8 8 8s8-3.584 8-8c0-4.416-3.584-8-8-8s-8 3.584-8 8zM16 22.72c2.828 0 5.12-2.292 5.12-5.12s-2.292-5.12-5.12-5.12c-2.828 0-5.12 2.292-5.12 5.12s2.292 5.12 5.12 5.12z"></path>
</svg>
